<svg id="visual" viewBox="0 0 1920 1080" width="1920" height="1080" xmlns="http://www.w3.org/2000/svg" xmlns:xlink="http://www.w3.org/1999/xlink" version="1.1"><path d="M1362 1080L1497 1080L1497 982L1669 982L1669 884L1708 884L1708 785L1612 785L1612 687L1554 687L1554 589L1727 589L1727 491L1285 491L1285 393L1689 393L1689 295L1593 295L1593 196L1593 196L1593 98L1669 98L1669 0L1920 0L1920 98L1920 98L1920 196L1920 196L1920 295L1920 295L1920 393L1920 393L1920 491L1920 491L1920 589L1920 589L1920 687L1920 687L1920 785L1920 785L1920 884L1920 884L1920 982L1920 982L1920 1080L1920 1080Z" fill="#fa7268"></path><path d="M1228 1080L1362 1080L1362 982L1535 982L1535 884L1420 884L1420 785L1458 785L1458 687L1458 687L1458 589L1535 589L1535 491L1189 491L1189 393L1458 393L1458 295L1362 295L1362 196L1362 196L1362 98L1535 98L1535 0L1670 0L1670 98L1594 98L1594 196L1594 196L1594 295L1690 295L1690 393L1286 393L1286 491L1728 491L1728 589L1555 589L1555 687L1613 687L1613 785L1709 785L1709 884L1670 884L1670 982L1498 982L1498 1080L1363 1080Z" fill="#f16667"></path><path d="M1074 1080L1132 1080L1132 982L1247 982L1247 884L1036 884L1036 785L1247 785L1247 687L1055 687L1055 589L1228 589L1228 491L997 491L997 393L1170 393L1170 295L1093 295L1093 196L1093 196L1093 98L1132 98L1132 0L1536 0L1536 98L1363 98L1363 196L1363 196L1363 295L1459 295L1459 393L1190 393L1190 491L1536 491L1536 589L1459 589L1459 687L1459 687L1459 785L1421 785L1421 884L1536 884L1536 982L1363 982L1363 1080L1229 1080Z" fill="#e75b66"></path><path d="M959 1080L1036 1080L1036 982L1093 982L1093 884L959 884L959 785L1132 785L1132 687L921 687L921 589L1074 589L1074 491L825 491L825 393L1113 393L1113 295L997 295L997 196L997 196L997 98L1017 98L1017 0L1133 0L1133 98L1094 98L1094 196L1094 196L1094 295L1171 295L1171 393L998 393L998 491L1229 491L1229 589L1056 589L1056 687L1248 687L1248 785L1037 785L1037 884L1248 884L1248 982L1133 982L1133 1080L1075 1080Z" fill="#dd5065"></path><path d="M825 1080L844 1080L844 982L882 982L882 884L882 884L882 785L940 785L940 687L709 687L709 589L882 589L882 491L690 491L690 393L940 393L940 295L786 295L786 196L844 196L844 98L786 98L786 0L1018 0L1018 98L998 98L998 196L998 196L998 295L1114 295L1114 393L826 393L826 491L1075 491L1075 589L922 589L922 687L1133 687L1133 785L960 785L960 884L1094 884L1094 982L1037 982L1037 1080L960 1080Z" fill="#d34463"></path><path d="M690 1080L671 1080L671 982L748 982L748 884L786 884L786 785L786 785L786 687L613 687L613 589L729 589L729 491L537 491L537 393L786 393L786 295L613 295L613 196L671 196L671 98L729 98L729 0L787 0L787 98L845 98L845 196L787 196L787 295L941 295L941 393L691 393L691 491L883 491L883 589L710 589L710 687L941 687L941 785L883 785L883 884L883 884L883 982L845 982L845 1080L826 1080Z" fill="#c73962"></path><path d="M460 1080L402 1080L402 982L652 982L652 884L479 884L479 785L575 785L575 687L498 687L498 589L613 589L613 491L249 491L249 393L594 393L594 295L498 295L498 196L421 196L421 98L517 98L517 0L730 0L730 98L672 98L672 196L614 196L614 295L787 295L787 393L538 393L538 491L730 491L730 589L614 589L614 687L787 687L787 785L787 785L787 884L749 884L749 982L672 982L672 1080L691 1080Z" fill="#bc2e61"></path><path d="M0 1080L0 1080L0 982L0 982L0 884L0 884L0 785L0 785L0 687L0 687L0 589L0 589L0 491L0 491L0 393L0 393L0 295L0 295L0 196L0 196L0 98L0 98L0 0L518 0L518 98L422 98L422 196L499 196L499 295L595 295L595 393L250 393L250 491L614 491L614 589L499 589L499 687L576 687L576 785L480 785L480 884L653 884L653 982L403 982L403 1080L461 1080Z" fill="#b0235f"></path></svg>